<mxfile host="app.diagrams.net" agent="Mozilla/5.0 (Windows NT 10.0; Win64; x64) AppleWebKit/537.36 (KHTML, like Gecko) Chrome/121.0.0.0 Safari/537.36" version="24.8.2">
  <diagram name="Página-1" id="k0PhGcXHRdCJMtNK5lY5">
    <mxGraphModel dx="1320" dy="1822" grid="1" gridSize="10" guides="1" tooltips="1" connect="1" arrows="1" fold="1" page="1" pageScale="1" pageWidth="827" pageHeight="1169" math="0" shadow="0">
      <root>
        <mxCell id="0" />
        <mxCell id="1" parent="0" />
        <mxCell id="Htptjzl4bUMVvKON77Ms-254" value="Administrador_log" style="swimlane;fontStyle=0;childLayout=stackLayout;horizontal=1;startSize=26;horizontalStack=0;resizeParent=1;resizeParentMax=0;resizeLast=0;collapsible=1;marginBottom=0;align=center;fontSize=14;" vertex="1" parent="1">
          <mxGeometry x="-50" y="490" width="160" height="116" as="geometry" />
        </mxCell>
        <mxCell id="Htptjzl4bUMVvKON77Ms-255" value="Administrador" style="text;strokeColor=none;fillColor=none;spacingLeft=4;spacingRight=4;overflow=hidden;rotatable=0;points=[[0,0.5],[1,0.5]];portConstraint=eastwest;fontSize=12;whiteSpace=wrap;html=1;" vertex="1" parent="Htptjzl4bUMVvKON77Ms-254">
          <mxGeometry y="26" width="160" height="30" as="geometry" />
        </mxCell>
        <mxCell id="Htptjzl4bUMVvKON77Ms-256" value="DataLog" style="text;strokeColor=none;fillColor=none;spacingLeft=4;spacingRight=4;overflow=hidden;rotatable=0;points=[[0,0.5],[1,0.5]];portConstraint=eastwest;fontSize=12;whiteSpace=wrap;html=1;" vertex="1" parent="Htptjzl4bUMVvKON77Ms-254">
          <mxGeometry y="56" width="160" height="30" as="geometry" />
        </mxCell>
        <mxCell id="Htptjzl4bUMVvKON77Ms-257" value="Log" style="text;strokeColor=none;fillColor=none;spacingLeft=4;spacingRight=4;overflow=hidden;rotatable=0;points=[[0,0.5],[1,0.5]];portConstraint=eastwest;fontSize=12;whiteSpace=wrap;html=1;" vertex="1" parent="Htptjzl4bUMVvKON77Ms-254">
          <mxGeometry y="86" width="160" height="30" as="geometry" />
        </mxCell>
        <mxCell id="Htptjzl4bUMVvKON77Ms-258" value="Administrador_14537" style="swimlane;fontStyle=0;childLayout=stackLayout;horizontal=1;startSize=26;horizontalStack=0;resizeParent=1;resizeParentMax=0;resizeLast=0;collapsible=1;marginBottom=0;align=center;fontSize=14;" vertex="1" parent="1">
          <mxGeometry x="-40" y="70" width="160" height="146" as="geometry" />
        </mxCell>
        <mxCell id="Htptjzl4bUMVvKON77Ms-259" value="&lt;u&gt;ID&lt;/u&gt;" style="text;strokeColor=none;fillColor=none;spacingLeft=4;spacingRight=4;overflow=hidden;rotatable=0;points=[[0,0.5],[1,0.5]];portConstraint=eastwest;fontSize=12;whiteSpace=wrap;html=1;" vertex="1" parent="Htptjzl4bUMVvKON77Ms-258">
          <mxGeometry y="26" width="160" height="30" as="geometry" />
        </mxCell>
        <mxCell id="Htptjzl4bUMVvKON77Ms-260" value="Nome" style="text;strokeColor=none;fillColor=none;spacingLeft=4;spacingRight=4;overflow=hidden;rotatable=0;points=[[0,0.5],[1,0.5]];portConstraint=eastwest;fontSize=12;whiteSpace=wrap;html=1;" vertex="1" parent="Htptjzl4bUMVvKON77Ms-258">
          <mxGeometry y="56" width="160" height="30" as="geometry" />
        </mxCell>
        <mxCell id="Htptjzl4bUMVvKON77Ms-261" value="user" style="text;strokeColor=none;fillColor=none;spacingLeft=4;spacingRight=4;overflow=hidden;rotatable=0;points=[[0,0.5],[1,0.5]];portConstraint=eastwest;fontSize=12;whiteSpace=wrap;html=1;" vertex="1" parent="Htptjzl4bUMVvKON77Ms-258">
          <mxGeometry y="86" width="160" height="30" as="geometry" />
        </mxCell>
        <mxCell id="Htptjzl4bUMVvKON77Ms-262" value="pass&lt;div&gt;&lt;br&gt;&lt;/div&gt;" style="text;strokeColor=none;fillColor=none;spacingLeft=4;spacingRight=4;overflow=hidden;rotatable=0;points=[[0,0.5],[1,0.5]];portConstraint=eastwest;fontSize=12;whiteSpace=wrap;html=1;" vertex="1" parent="Htptjzl4bUMVvKON77Ms-258">
          <mxGeometry y="116" width="160" height="30" as="geometry" />
        </mxCell>
        <mxCell id="Htptjzl4bUMVvKON77Ms-263" value="Tipo_Movel" style="swimlane;fontStyle=0;childLayout=stackLayout;horizontal=1;startSize=26;horizontalStack=0;resizeParent=1;resizeParentMax=0;resizeLast=0;collapsible=1;marginBottom=0;align=center;fontSize=14;" vertex="1" parent="1">
          <mxGeometry x="290" y="-10" width="160" height="86" as="geometry" />
        </mxCell>
        <mxCell id="Htptjzl4bUMVvKON77Ms-264" value="&lt;u&gt;ID&lt;/u&gt;" style="text;strokeColor=none;fillColor=none;spacingLeft=4;spacingRight=4;overflow=hidden;rotatable=0;points=[[0,0.5],[1,0.5]];portConstraint=eastwest;fontSize=12;whiteSpace=wrap;html=1;" vertex="1" parent="Htptjzl4bUMVvKON77Ms-263">
          <mxGeometry y="26" width="160" height="30" as="geometry" />
        </mxCell>
        <mxCell id="Htptjzl4bUMVvKON77Ms-265" value="Telemovel" style="text;strokeColor=none;fillColor=none;spacingLeft=4;spacingRight=4;overflow=hidden;rotatable=0;points=[[0,0.5],[1,0.5]];portConstraint=eastwest;fontSize=12;whiteSpace=wrap;html=1;" vertex="1" parent="Htptjzl4bUMVvKON77Ms-263">
          <mxGeometry y="56" width="160" height="30" as="geometry" />
        </mxCell>
        <mxCell id="Htptjzl4bUMVvKON77Ms-267" value="IMOVEL" style="swimlane;fontStyle=0;childLayout=stackLayout;horizontal=1;startSize=26;horizontalStack=0;resizeParent=1;resizeParentMax=0;resizeLast=0;collapsible=1;marginBottom=0;align=center;fontSize=14;" vertex="1" parent="1">
          <mxGeometry x="290" y="300" width="160" height="236" as="geometry" />
        </mxCell>
        <mxCell id="Htptjzl4bUMVvKON77Ms-268" value="&lt;u&gt;ID&lt;/u&gt;" style="text;strokeColor=none;fillColor=none;spacingLeft=4;spacingRight=4;overflow=hidden;rotatable=0;points=[[0,0.5],[1,0.5]];portConstraint=eastwest;fontSize=12;whiteSpace=wrap;html=1;" vertex="1" parent="Htptjzl4bUMVvKON77Ms-267">
          <mxGeometry y="26" width="160" height="30" as="geometry" />
        </mxCell>
        <mxCell id="Htptjzl4bUMVvKON77Ms-269" value="Foto" style="text;strokeColor=none;fillColor=none;spacingLeft=4;spacingRight=4;overflow=hidden;rotatable=0;points=[[0,0.5],[1,0.5]];portConstraint=eastwest;fontSize=12;whiteSpace=wrap;html=1;" vertex="1" parent="Htptjzl4bUMVvKON77Ms-267">
          <mxGeometry y="56" width="160" height="30" as="geometry" />
        </mxCell>
        <mxCell id="Htptjzl4bUMVvKON77Ms-270" value="Titulo" style="text;strokeColor=none;fillColor=none;spacingLeft=4;spacingRight=4;overflow=hidden;rotatable=0;points=[[0,0.5],[1,0.5]];portConstraint=eastwest;fontSize=12;whiteSpace=wrap;html=1;" vertex="1" parent="Htptjzl4bUMVvKON77Ms-267">
          <mxGeometry y="86" width="160" height="30" as="geometry" />
        </mxCell>
        <mxCell id="Htptjzl4bUMVvKON77Ms-271" value="Preço" style="text;strokeColor=none;fillColor=none;spacingLeft=4;spacingRight=4;overflow=hidden;rotatable=0;points=[[0,0.5],[1,0.5]];portConstraint=eastwest;fontSize=12;whiteSpace=wrap;html=1;" vertex="1" parent="Htptjzl4bUMVvKON77Ms-267">
          <mxGeometry y="116" width="160" height="30" as="geometry" />
        </mxCell>
        <mxCell id="Htptjzl4bUMVvKON77Ms-272" value="NumQuartos" style="text;strokeColor=none;fillColor=none;spacingLeft=4;spacingRight=4;overflow=hidden;rotatable=0;points=[[0,0.5],[1,0.5]];portConstraint=eastwest;fontSize=12;whiteSpace=wrap;html=1;" vertex="1" parent="Htptjzl4bUMVvKON77Ms-267">
          <mxGeometry y="146" width="160" height="30" as="geometry" />
        </mxCell>
        <mxCell id="Htptjzl4bUMVvKON77Ms-279" value="NumWC" style="text;strokeColor=none;fillColor=none;spacingLeft=4;spacingRight=4;overflow=hidden;rotatable=0;points=[[0,0.5],[1,0.5]];portConstraint=eastwest;fontSize=12;whiteSpace=wrap;html=1;" vertex="1" parent="Htptjzl4bUMVvKON77Ms-267">
          <mxGeometry y="176" width="160" height="30" as="geometry" />
        </mxCell>
        <mxCell id="Htptjzl4bUMVvKON77Ms-280" value="Lat/Long" style="text;strokeColor=none;fillColor=none;spacingLeft=4;spacingRight=4;overflow=hidden;rotatable=0;points=[[0,0.5],[1,0.5]];portConstraint=eastwest;fontSize=12;whiteSpace=wrap;html=1;" vertex="1" parent="Htptjzl4bUMVvKON77Ms-267">
          <mxGeometry y="206" width="160" height="30" as="geometry" />
        </mxCell>
        <mxCell id="Htptjzl4bUMVvKON77Ms-282" value="ESTA_EM" style="swimlane;fontStyle=0;childLayout=stackLayout;horizontal=1;startSize=26;horizontalStack=0;resizeParent=1;resizeParentMax=0;resizeLast=0;collapsible=1;marginBottom=0;align=center;fontSize=14;" vertex="1" parent="1">
          <mxGeometry x="667" y="310" width="160" height="86" as="geometry" />
        </mxCell>
        <mxCell id="Htptjzl4bUMVvKON77Ms-283" value="&lt;u&gt;ID&lt;/u&gt;" style="text;strokeColor=none;fillColor=none;spacingLeft=4;spacingRight=4;overflow=hidden;rotatable=0;points=[[0,0.5],[1,0.5]];portConstraint=eastwest;fontSize=12;whiteSpace=wrap;html=1;" vertex="1" parent="Htptjzl4bUMVvKON77Ms-282">
          <mxGeometry y="26" width="160" height="30" as="geometry" />
        </mxCell>
        <mxCell id="Htptjzl4bUMVvKON77Ms-284" value="Localidade" style="text;strokeColor=none;fillColor=none;spacingLeft=4;spacingRight=4;overflow=hidden;rotatable=0;points=[[0,0.5],[1,0.5]];portConstraint=eastwest;fontSize=12;whiteSpace=wrap;html=1;" vertex="1" parent="Htptjzl4bUMVvKON77Ms-282">
          <mxGeometry y="56" width="160" height="30" as="geometry" />
        </mxCell>
        <mxCell id="Htptjzl4bUMVvKON77Ms-285" value="Cidade" style="swimlane;fontStyle=0;childLayout=stackLayout;horizontal=1;startSize=26;horizontalStack=0;resizeParent=1;resizeParentMax=0;resizeLast=0;collapsible=1;marginBottom=0;align=center;fontSize=14;" vertex="1" parent="1">
          <mxGeometry x="1000" y="-50" width="160" height="86" as="geometry" />
        </mxCell>
        <mxCell id="Htptjzl4bUMVvKON77Ms-286" value="&lt;u&gt;ID&lt;/u&gt;" style="text;strokeColor=none;fillColor=none;spacingLeft=4;spacingRight=4;overflow=hidden;rotatable=0;points=[[0,0.5],[1,0.5]];portConstraint=eastwest;fontSize=12;whiteSpace=wrap;html=1;" vertex="1" parent="Htptjzl4bUMVvKON77Ms-285">
          <mxGeometry y="26" width="160" height="30" as="geometry" />
        </mxCell>
        <mxCell id="Htptjzl4bUMVvKON77Ms-287" value="Cidade" style="text;strokeColor=none;fillColor=none;spacingLeft=4;spacingRight=4;overflow=hidden;rotatable=0;points=[[0,0.5],[1,0.5]];portConstraint=eastwest;fontSize=12;whiteSpace=wrap;html=1;" vertex="1" parent="Htptjzl4bUMVvKON77Ms-285">
          <mxGeometry y="56" width="160" height="30" as="geometry" />
        </mxCell>
        <mxCell id="Htptjzl4bUMVvKON77Ms-288" value="Atributo" style="swimlane;fontStyle=0;childLayout=stackLayout;horizontal=1;startSize=26;horizontalStack=0;resizeParent=1;resizeParentMax=0;resizeLast=0;collapsible=1;marginBottom=0;align=center;fontSize=14;" vertex="1" parent="1">
          <mxGeometry x="280" y="801" width="160" height="146" as="geometry" />
        </mxCell>
        <mxCell id="Htptjzl4bUMVvKON77Ms-289" value="&lt;u&gt;ID&lt;/u&gt;" style="text;strokeColor=none;fillColor=none;spacingLeft=4;spacingRight=4;overflow=hidden;rotatable=0;points=[[0,0.5],[1,0.5]];portConstraint=eastwest;fontSize=12;whiteSpace=wrap;html=1;" vertex="1" parent="Htptjzl4bUMVvKON77Ms-288">
          <mxGeometry y="26" width="160" height="30" as="geometry" />
        </mxCell>
        <mxCell id="Htptjzl4bUMVvKON77Ms-290" value="Atributo" style="text;strokeColor=none;fillColor=none;spacingLeft=4;spacingRight=4;overflow=hidden;rotatable=0;points=[[0,0.5],[1,0.5]];portConstraint=eastwest;fontSize=12;whiteSpace=wrap;html=1;" vertex="1" parent="Htptjzl4bUMVvKON77Ms-288">
          <mxGeometry y="56" width="160" height="30" as="geometry" />
        </mxCell>
        <mxCell id="Htptjzl4bUMVvKON77Ms-291" value="Ordem" style="text;strokeColor=none;fillColor=none;spacingLeft=4;spacingRight=4;overflow=hidden;rotatable=0;points=[[0,0.5],[1,0.5]];portConstraint=eastwest;fontSize=12;whiteSpace=wrap;html=1;" vertex="1" parent="Htptjzl4bUMVvKON77Ms-288">
          <mxGeometry y="86" width="160" height="30" as="geometry" />
        </mxCell>
        <mxCell id="Htptjzl4bUMVvKON77Ms-292" value="Icone?" style="text;strokeColor=none;fillColor=none;spacingLeft=4;spacingRight=4;overflow=hidden;rotatable=0;points=[[0,0.5],[1,0.5]];portConstraint=eastwest;fontSize=12;whiteSpace=wrap;html=1;" vertex="1" parent="Htptjzl4bUMVvKON77Ms-288">
          <mxGeometry y="116" width="160" height="30" as="geometry" />
        </mxCell>
        <mxCell id="Htptjzl4bUMVvKON77Ms-293" value="Tipo_Atributo" style="swimlane;fontStyle=0;childLayout=stackLayout;horizontal=1;startSize=26;horizontalStack=0;resizeParent=1;resizeParentMax=0;resizeLast=0;collapsible=1;marginBottom=0;align=center;fontSize=14;" vertex="1" parent="1">
          <mxGeometry x="950" y="660" width="160" height="116" as="geometry" />
        </mxCell>
        <mxCell id="Htptjzl4bUMVvKON77Ms-294" value="&lt;u&gt;ID&lt;/u&gt;" style="text;strokeColor=none;fillColor=none;spacingLeft=4;spacingRight=4;overflow=hidden;rotatable=0;points=[[0,0.5],[1,0.5]];portConstraint=eastwest;fontSize=12;whiteSpace=wrap;html=1;" vertex="1" parent="Htptjzl4bUMVvKON77Ms-293">
          <mxGeometry y="26" width="160" height="30" as="geometry" />
        </mxCell>
        <mxCell id="Htptjzl4bUMVvKON77Ms-295" value="TipoAtributo" style="text;strokeColor=none;fillColor=none;spacingLeft=4;spacingRight=4;overflow=hidden;rotatable=0;points=[[0,0.5],[1,0.5]];portConstraint=eastwest;fontSize=12;whiteSpace=wrap;html=1;" vertex="1" parent="Htptjzl4bUMVvKON77Ms-293">
          <mxGeometry y="56" width="160" height="30" as="geometry" />
        </mxCell>
        <mxCell id="Htptjzl4bUMVvKON77Ms-296" value="Ordem" style="text;strokeColor=none;fillColor=none;spacingLeft=4;spacingRight=4;overflow=hidden;rotatable=0;points=[[0,0.5],[1,0.5]];portConstraint=eastwest;fontSize=12;whiteSpace=wrap;html=1;" vertex="1" parent="Htptjzl4bUMVvKON77Ms-293">
          <mxGeometry y="86" width="160" height="30" as="geometry" />
        </mxCell>
        <mxCell id="Htptjzl4bUMVvKON77Ms-298" value="" style="edgeStyle=entityRelationEdgeStyle;fontSize=12;html=1;endArrow=ERmany;rounded=0;" edge="1" parent="1" source="Htptjzl4bUMVvKON77Ms-311" target="Htptjzl4bUMVvKON77Ms-255">
          <mxGeometry width="100" height="100" relative="1" as="geometry">
            <mxPoint x="180" y="340" as="sourcePoint" />
            <mxPoint x="130" y="280" as="targetPoint" />
          </mxGeometry>
        </mxCell>
        <mxCell id="Htptjzl4bUMVvKON77Ms-299" value="" style="edgeStyle=entityRelationEdgeStyle;fontSize=12;html=1;endArrow=ERmany;rounded=0;" edge="1" parent="1" source="Htptjzl4bUMVvKON77Ms-317" target="Htptjzl4bUMVvKON77Ms-268">
          <mxGeometry width="100" height="100" relative="1" as="geometry">
            <mxPoint x="130" y="121" as="sourcePoint" />
            <mxPoint x="260" y="270" as="targetPoint" />
          </mxGeometry>
        </mxCell>
        <mxCell id="Htptjzl4bUMVvKON77Ms-305" value="" style="edgeStyle=entityRelationEdgeStyle;fontSize=12;html=1;endArrow=ERmany;startArrow=ERmany;rounded=0;" edge="1" parent="1" source="Htptjzl4bUMVvKON77Ms-320" target="Htptjzl4bUMVvKON77Ms-270">
          <mxGeometry width="100" height="100" relative="1" as="geometry">
            <mxPoint x="470" y="630" as="sourcePoint" />
            <mxPoint x="570" y="530" as="targetPoint" />
          </mxGeometry>
        </mxCell>
        <mxCell id="Htptjzl4bUMVvKON77Ms-306" value="" style="edgeStyle=entityRelationEdgeStyle;fontSize=12;html=1;endArrow=ERmany;rounded=0;" edge="1" parent="1" source="Htptjzl4bUMVvKON77Ms-289" target="Htptjzl4bUMVvKON77Ms-326">
          <mxGeometry width="100" height="100" relative="1" as="geometry">
            <mxPoint x="530" y="700" as="sourcePoint" />
            <mxPoint x="660" y="726" as="targetPoint" />
          </mxGeometry>
        </mxCell>
        <mxCell id="Htptjzl4bUMVvKON77Ms-307" value="" style="edgeStyle=entityRelationEdgeStyle;fontSize=12;html=1;endArrow=ERmany;rounded=0;" edge="1" parent="1" source="Htptjzl4bUMVvKON77Ms-283" target="Htptjzl4bUMVvKON77Ms-269">
          <mxGeometry width="100" height="100" relative="1" as="geometry">
            <mxPoint x="470" y="420" as="sourcePoint" />
            <mxPoint x="570" y="320" as="targetPoint" />
          </mxGeometry>
        </mxCell>
        <mxCell id="Htptjzl4bUMVvKON77Ms-308" value="" style="edgeStyle=entityRelationEdgeStyle;fontSize=12;html=1;endArrow=ERmany;rounded=0;" edge="1" parent="1" source="Htptjzl4bUMVvKON77Ms-331" target="Htptjzl4bUMVvKON77Ms-283">
          <mxGeometry width="100" height="100" relative="1" as="geometry">
            <mxPoint x="910" y="290" as="sourcePoint" />
            <mxPoint x="630" y="240" as="targetPoint" />
          </mxGeometry>
        </mxCell>
        <mxCell id="Htptjzl4bUMVvKON77Ms-309" value="tem" style="swimlane;fontStyle=0;childLayout=stackLayout;horizontal=1;startSize=26;horizontalStack=0;resizeParent=1;resizeParentMax=0;resizeLast=0;collapsible=1;marginBottom=0;align=center;fontSize=14;" vertex="1" parent="1">
          <mxGeometry x="-40" y="280" width="160" height="86" as="geometry" />
        </mxCell>
        <mxCell id="Htptjzl4bUMVvKON77Ms-310" value="&lt;u&gt;ID&lt;/u&gt;" style="text;strokeColor=none;fillColor=none;spacingLeft=4;spacingRight=4;overflow=hidden;rotatable=0;points=[[0,0.5],[1,0.5]];portConstraint=eastwest;fontSize=12;whiteSpace=wrap;html=1;" vertex="1" parent="Htptjzl4bUMVvKON77Ms-309">
          <mxGeometry y="26" width="160" height="30" as="geometry" />
        </mxCell>
        <mxCell id="Htptjzl4bUMVvKON77Ms-311" value="Administrador" style="text;strokeColor=none;fillColor=none;spacingLeft=4;spacingRight=4;overflow=hidden;rotatable=0;points=[[0,0.5],[1,0.5]];portConstraint=eastwest;fontSize=12;whiteSpace=wrap;html=1;" vertex="1" parent="Htptjzl4bUMVvKON77Ms-309">
          <mxGeometry y="56" width="160" height="30" as="geometry" />
        </mxCell>
        <mxCell id="Htptjzl4bUMVvKON77Ms-314" style="edgeStyle=orthogonalEdgeStyle;rounded=0;orthogonalLoop=1;jettySize=auto;html=1;exitX=1;exitY=0.5;exitDx=0;exitDy=0;endArrow=none;endFill=0;" edge="1" parent="1" source="Htptjzl4bUMVvKON77Ms-259" target="Htptjzl4bUMVvKON77Ms-310">
          <mxGeometry relative="1" as="geometry" />
        </mxCell>
        <mxCell id="Htptjzl4bUMVvKON77Ms-315" value="É_DO_TIPO" style="swimlane;fontStyle=0;childLayout=stackLayout;horizontal=1;startSize=26;horizontalStack=0;resizeParent=1;resizeParentMax=0;resizeLast=0;collapsible=1;marginBottom=0;align=center;fontSize=14;" vertex="1" parent="1">
          <mxGeometry x="290" y="140" width="160" height="86" as="geometry" />
        </mxCell>
        <mxCell id="Htptjzl4bUMVvKON77Ms-316" value="&lt;u&gt;ID&lt;/u&gt;" style="text;strokeColor=none;fillColor=none;spacingLeft=4;spacingRight=4;overflow=hidden;rotatable=0;points=[[0,0.5],[1,0.5]];portConstraint=eastwest;fontSize=12;whiteSpace=wrap;html=1;" vertex="1" parent="Htptjzl4bUMVvKON77Ms-315">
          <mxGeometry y="26" width="160" height="30" as="geometry" />
        </mxCell>
        <mxCell id="Htptjzl4bUMVvKON77Ms-317" value="ID" style="text;strokeColor=none;fillColor=none;spacingLeft=4;spacingRight=4;overflow=hidden;rotatable=0;points=[[0,0.5],[1,0.5]];portConstraint=eastwest;fontSize=12;whiteSpace=wrap;html=1;" vertex="1" parent="Htptjzl4bUMVvKON77Ms-315">
          <mxGeometry y="56" width="160" height="30" as="geometry" />
        </mxCell>
        <mxCell id="Htptjzl4bUMVvKON77Ms-318" value="" style="edgeStyle=entityRelationEdgeStyle;fontSize=12;html=1;endArrow=none;rounded=0;endFill=0;" edge="1" parent="1" source="Htptjzl4bUMVvKON77Ms-264" target="Htptjzl4bUMVvKON77Ms-316">
          <mxGeometry width="100" height="100" relative="1" as="geometry">
            <mxPoint x="460" y="221" as="sourcePoint" />
            <mxPoint x="460" y="351" as="targetPoint" />
          </mxGeometry>
        </mxCell>
        <mxCell id="Htptjzl4bUMVvKON77Ms-319" value="Tem" style="swimlane;fontStyle=0;childLayout=stackLayout;horizontal=1;startSize=26;horizontalStack=0;resizeParent=1;resizeParentMax=0;resizeLast=0;collapsible=1;marginBottom=0;align=center;fontSize=14;" vertex="1" parent="1">
          <mxGeometry x="280" y="620" width="160" height="86" as="geometry" />
        </mxCell>
        <mxCell id="Htptjzl4bUMVvKON77Ms-320" value="&lt;u&gt;ID&lt;/u&gt;" style="text;strokeColor=none;fillColor=none;spacingLeft=4;spacingRight=4;overflow=hidden;rotatable=0;points=[[0,0.5],[1,0.5]];portConstraint=eastwest;fontSize=12;whiteSpace=wrap;html=1;" vertex="1" parent="Htptjzl4bUMVvKON77Ms-319">
          <mxGeometry y="26" width="160" height="30" as="geometry" />
        </mxCell>
        <mxCell id="Htptjzl4bUMVvKON77Ms-321" value="ID" style="text;strokeColor=none;fillColor=none;spacingLeft=4;spacingRight=4;overflow=hidden;rotatable=0;points=[[0,0.5],[1,0.5]];portConstraint=eastwest;fontSize=12;whiteSpace=wrap;html=1;" vertex="1" parent="Htptjzl4bUMVvKON77Ms-319">
          <mxGeometry y="56" width="160" height="30" as="geometry" />
        </mxCell>
        <mxCell id="Htptjzl4bUMVvKON77Ms-323" value="" style="edgeStyle=entityRelationEdgeStyle;fontSize=12;html=1;endArrow=ERmany;startArrow=ERmany;rounded=0;" edge="1" parent="1" source="Htptjzl4bUMVvKON77Ms-289" target="Htptjzl4bUMVvKON77Ms-321">
          <mxGeometry width="100" height="100" relative="1" as="geometry">
            <mxPoint x="450" y="671" as="sourcePoint" />
            <mxPoint x="460" y="411" as="targetPoint" />
          </mxGeometry>
        </mxCell>
        <mxCell id="Htptjzl4bUMVvKON77Ms-324" value="Tem" style="swimlane;fontStyle=0;childLayout=stackLayout;horizontal=1;startSize=26;horizontalStack=0;resizeParent=1;resizeParentMax=0;resizeLast=0;collapsible=1;marginBottom=0;align=center;fontSize=14;" vertex="1" parent="1">
          <mxGeometry x="610" y="810" width="160" height="86" as="geometry" />
        </mxCell>
        <mxCell id="Htptjzl4bUMVvKON77Ms-325" value="&lt;u&gt;ID&lt;/u&gt;" style="text;strokeColor=none;fillColor=none;spacingLeft=4;spacingRight=4;overflow=hidden;rotatable=0;points=[[0,0.5],[1,0.5]];portConstraint=eastwest;fontSize=12;whiteSpace=wrap;html=1;" vertex="1" parent="Htptjzl4bUMVvKON77Ms-324">
          <mxGeometry y="26" width="160" height="30" as="geometry" />
        </mxCell>
        <mxCell id="Htptjzl4bUMVvKON77Ms-326" value="ID" style="text;strokeColor=none;fillColor=none;spacingLeft=4;spacingRight=4;overflow=hidden;rotatable=0;points=[[0,0.5],[1,0.5]];portConstraint=eastwest;fontSize=12;whiteSpace=wrap;html=1;" vertex="1" parent="Htptjzl4bUMVvKON77Ms-324">
          <mxGeometry y="56" width="160" height="30" as="geometry" />
        </mxCell>
        <mxCell id="Htptjzl4bUMVvKON77Ms-329" value="" style="edgeStyle=entityRelationEdgeStyle;fontSize=12;html=1;endArrow=ERmany;rounded=0;" edge="1" parent="1" source="Htptjzl4bUMVvKON77Ms-325" target="Htptjzl4bUMVvKON77Ms-294">
          <mxGeometry width="100" height="100" relative="1" as="geometry">
            <mxPoint x="450" y="852" as="sourcePoint" />
            <mxPoint x="620" y="891" as="targetPoint" />
          </mxGeometry>
        </mxCell>
        <mxCell id="Htptjzl4bUMVvKON77Ms-330" value="Localidade" style="swimlane;fontStyle=0;childLayout=stackLayout;horizontal=1;startSize=26;horizontalStack=0;resizeParent=1;resizeParentMax=0;resizeLast=0;collapsible=1;marginBottom=0;align=center;fontSize=14;" vertex="1" parent="1">
          <mxGeometry x="1000" y="290" width="160" height="86" as="geometry" />
        </mxCell>
        <mxCell id="Htptjzl4bUMVvKON77Ms-331" value="&lt;u&gt;ID&lt;/u&gt;" style="text;strokeColor=none;fillColor=none;spacingLeft=4;spacingRight=4;overflow=hidden;rotatable=0;points=[[0,0.5],[1,0.5]];portConstraint=eastwest;fontSize=12;whiteSpace=wrap;html=1;" vertex="1" parent="Htptjzl4bUMVvKON77Ms-330">
          <mxGeometry y="26" width="160" height="30" as="geometry" />
        </mxCell>
        <mxCell id="Htptjzl4bUMVvKON77Ms-332" value="Localidade" style="text;strokeColor=none;fillColor=none;spacingLeft=4;spacingRight=4;overflow=hidden;rotatable=0;points=[[0,0.5],[1,0.5]];portConstraint=eastwest;fontSize=12;whiteSpace=wrap;html=1;" vertex="1" parent="Htptjzl4bUMVvKON77Ms-330">
          <mxGeometry y="56" width="160" height="30" as="geometry" />
        </mxCell>
        <mxCell id="Htptjzl4bUMVvKON77Ms-333" value="Tem" style="swimlane;fontStyle=0;childLayout=stackLayout;horizontal=1;startSize=26;horizontalStack=0;resizeParent=1;resizeParentMax=0;resizeLast=0;collapsible=1;marginBottom=0;align=center;fontSize=14;" vertex="1" parent="1">
          <mxGeometry x="1000" y="140" width="160" height="86" as="geometry" />
        </mxCell>
        <mxCell id="Htptjzl4bUMVvKON77Ms-334" value="&lt;u&gt;ID&lt;/u&gt;" style="text;strokeColor=none;fillColor=none;spacingLeft=4;spacingRight=4;overflow=hidden;rotatable=0;points=[[0,0.5],[1,0.5]];portConstraint=eastwest;fontSize=12;whiteSpace=wrap;html=1;" vertex="1" parent="Htptjzl4bUMVvKON77Ms-333">
          <mxGeometry y="26" width="160" height="30" as="geometry" />
        </mxCell>
        <mxCell id="Htptjzl4bUMVvKON77Ms-335" value="ID" style="text;strokeColor=none;fillColor=none;spacingLeft=4;spacingRight=4;overflow=hidden;rotatable=0;points=[[0,0.5],[1,0.5]];portConstraint=eastwest;fontSize=12;whiteSpace=wrap;html=1;" vertex="1" parent="Htptjzl4bUMVvKON77Ms-333">
          <mxGeometry y="56" width="160" height="30" as="geometry" />
        </mxCell>
        <mxCell id="Htptjzl4bUMVvKON77Ms-336" value="" style="edgeStyle=entityRelationEdgeStyle;fontSize=12;html=1;endArrow=ERmany;rounded=0;" edge="1" parent="1" source="Htptjzl4bUMVvKON77Ms-331" target="Htptjzl4bUMVvKON77Ms-334">
          <mxGeometry width="100" height="100" relative="1" as="geometry">
            <mxPoint x="1010" y="341" as="sourcePoint" />
            <mxPoint x="837" y="361" as="targetPoint" />
          </mxGeometry>
        </mxCell>
        <mxCell id="Htptjzl4bUMVvKON77Ms-337" value="" style="edgeStyle=entityRelationEdgeStyle;fontSize=12;html=1;endArrow=ERmany;rounded=0;" edge="1" parent="1" source="Htptjzl4bUMVvKON77Ms-286" target="Htptjzl4bUMVvKON77Ms-335">
          <mxGeometry width="100" height="100" relative="1" as="geometry">
            <mxPoint x="1160" y="60" as="sourcePoint" />
            <mxPoint x="1170" y="191" as="targetPoint" />
          </mxGeometry>
        </mxCell>
      </root>
    </mxGraphModel>
  </diagram>
</mxfile>
